<?xml version="1.0" standalone="no"?>
<!DOCTYPE svg PUBLIC "-//W3C//DTD SVG 20010904//EN"
 "http://www.w3.org/TR/2001/REC-SVG-20010904/DTD/svg10.dtd">
<svg version="1.0" xmlns="http://www.w3.org/2000/svg"
 width="621.000000pt" height="717.000000pt" viewBox="0 0 621.000000 717.000000"
 preserveAspectRatio="xMidYMid meet">
<metadata>
Created by potrace 1.15, written by Peter Selinger 2001-2017
</metadata>
<g transform="translate(0.000000,717.000000) scale(0.100000,-0.100000)"
fill="#585858" stroke="none">
<path d="M1550 6267 l-1545 -893 -3 -1794 -2 -1795 1541 -890 c848 -490 1551
-891 1563 -893 13 -1 615 341 1561 888 l1540 889 2 1798 3 1798 -1542 890
c-848 490 -1548 891 -1557 892 -9 2 -711 -399 -1561 -890z m1450 -951 l0 -94
-72 -7 c-104 -9 -140 -21 -170 -52 -53 -56 -51 -21 -58 -1308 -6 -1189 -7
-1201 -28 -1297 -101 -445 -329 -655 -742 -684 -187 -12 -435 29 -552 93 -119
65 -188 166 -188 275 0 73 17 114 63 155 61 53 140 66 236 37 77 -22 129 -75
192 -196 65 -124 105 -158 183 -158 72 0 116 32 155 112 41 84 60 188 71 398
12 220 12 2281 1 2412 -15 163 -46 193 -216 211 l-105 11 0 93 0 93 615 0 615
0 0 -94z m1740 0 l0 -93 -77 -7 c-142 -13 -189 -41 -213 -124 -6 -24 -10 -390
-10 -1067 0 -1086 -7 -1311 -40 -1477 -61 -295 -199 -495 -414 -598 -227 -108
-631 -103 -863 12 -83 41 -157 115 -183 185 -66 176 40 318 223 299 105 -11
177 -67 238 -188 70 -139 114 -178 202 -178 82 0 150 73 182 195 39 151 40
201 40 1515 l0 1275 -22 47 c-34 74 -67 89 -230 104 l-73 6 0 94 0 94 620 0
620 0 0 -94z"/>
</g>
</svg>
